<svg width="32" height="32" viewBox="0 0 32 32" fill="none" xmlns="http://www.w3.org/2000/svg">
<path d="M21.3034 17.1429C24.2485 11.9501 22.4272 5.34933 17.2344 2.40417C12.9975 0.00153557 7.67553 0.737826 4.23951 4.18676C-0.023228 8.37199 -0.0878149 15.2053 4.09741 19.468C8.28264 23.7307 15.1159 23.7953 19.3787 19.6101C19.4433 19.5584 19.4949 19.4938 19.5595 19.4293" stroke="#009ADD" stroke-linecap="round" stroke-linejoin="round"/>
<path d="M17.6736 17.5562C14.4959 20.7468 9.34187 20.7597 6.15128 17.582C2.96069 14.4044 2.94777 9.25032 6.12545 6.05973C9.30312 2.86914 14.4572 2.85622 17.6477 6.0339C20.8383 9.21157 20.8383 14.3656 17.6736 17.5562Z" stroke="#009ADD" stroke-linecap="round" stroke-linejoin="round"/>
<path d="M6.7713 11.808C6.7713 8.9791 9.07059 6.69273 11.8995 6.67981" stroke="#009ADD" stroke-linecap="round" stroke-linejoin="round"/>
<path d="M30.8751 27.2701C31.4435 28.6393 30.7847 30.2282 29.4155 30.7965C28.7567 31.0678 28.0204 31.0678 27.3487 30.7965L20.1666 23.6145C21.3421 22.439 22.5176 21.2635 23.6931 20.088L30.8751 27.2701Z" stroke="#009ADD" stroke-linecap="round" stroke-linejoin="round"/>
<path d="M25.2819 22.4907L22.5693 25.2034" stroke="#009ADD" stroke-linecap="round" stroke-linejoin="round"/>
<path d="M21.678 21.5865L19.7533 19.6747" stroke="#009ADD" stroke-linecap="round" stroke-linejoin="round"/>
</svg>
